<svg width="17" height="15" viewBox="0 0 17 15" fill="none" xmlns="http://www.w3.org/2000/svg">
<path d="M16.7462 12.0142C16.8634 11.425 16.788 10.8138 16.5312 10.2708C16.2743 9.72777 15.8497 9.28173 15.3199 8.99857C14.7901 8.71541 14.1833 8.61014 13.5891 8.69828C12.995 8.78642 12.4449 9.06332 12.0201 9.48808C11.5954 9.91283 11.3185 10.463 11.2303 11.0572C11.1422 11.6514 11.2475 12.2581 11.5306 12.7879C11.8138 13.3176 12.2598 13.7422 12.8028 13.9991C13.3459 14.2559 13.9571 14.3313 14.5462 14.2141C15.0894 14.1061 15.5883 13.8394 15.9799 13.4478C16.3715 13.0562 16.6382 12.5574 16.7462 12.0142ZM12.0762 12.0081C11.9796 11.6659 11.9761 11.3043 12.0658 10.9602C12.1556 10.6162 12.3354 10.3022 12.5868 10.0508C12.8383 9.7994 13.1522 9.61957 13.4962 9.52982C13.8403 9.44007 14.202 9.44351 14.5442 9.54008C14.8753 9.63017 15.1772 9.80533 15.42 10.0479C15.6627 10.2905 15.8379 10.5921 15.9282 10.9231C16.0231 11.2653 16.0254 11.6266 15.935 11.97C15.8446 12.3134 15.6647 12.6264 15.4136 12.8775C15.1625 13.1285 14.8493 13.3085 14.506 13.399C14.1626 13.4894 13.8014 13.487 13.4592 13.3921C13.1289 13.3012 12.828 13.1258 12.5862 12.8831C12.3443 12.6404 12.17 12.3387 12.0802 12.0081H12.0762Z" fill="#2B518E"/>
<path d="M5.54621 12.0142C5.66339 11.425 5.58802 10.8138 5.33118 10.2708C5.07434 9.72777 4.64967 9.28173 4.11991 8.99857C3.59014 8.71541 2.98336 8.61014 2.38916 8.69828C1.79497 8.78642 1.24486 9.06332 0.820103 9.48808C0.395348 9.91283 0.118451 10.463 0.030308 11.0572C-0.0578347 11.6514 0.0474704 12.2581 0.330631 12.7879C0.613793 13.3176 1.0598 13.7422 1.60282 13.9991C2.14584 14.2559 2.75707 14.3313 3.34623 14.2141C3.88939 14.1061 4.38831 13.8394 4.77991 13.4478C5.17151 13.0562 5.43817 12.5574 5.54621 12.0142ZM0.876225 12.0081C0.779571 11.6658 0.775937 11.3039 0.865727 10.9598C0.955516 10.6156 1.13547 10.3015 1.38703 10.0501C1.63859 9.79863 1.95268 9.61899 2.29688 9.52934C2.64108 9.43969 3.00295 9.44328 3.34522 9.54008C3.67611 9.63042 3.97771 9.80559 4.22025 10.0481C4.46279 10.2907 4.63788 10.5922 4.72821 10.9231C4.82307 11.2653 4.8254 11.6266 4.73499 11.97C4.64457 12.3134 4.46467 12.6264 4.2136 12.8775C3.96253 13.1285 3.6493 13.3085 3.30594 13.399C2.96258 13.4894 2.60138 13.487 2.25922 13.3921C1.92724 13.3026 1.62448 13.1278 1.38099 12.885C1.1375 12.6423 0.961753 12.3398 0.87122 12.0081H0.876225Z" fill="#2B518E"/>
<path d="M5.6672 2.65608C5.55002 3.24524 5.62542 3.85647 5.88225 4.39949C6.13909 4.94251 6.56376 5.38855 7.09353 5.67171C7.6233 5.95487 8.23008 6.06014 8.82427 5.972C9.41846 5.88386 9.96855 5.60696 10.3933 5.1822C10.8181 4.75745 11.095 4.20755 11.1831 3.61336C11.2712 3.01916 11.166 2.41217 10.8828 1.8824C10.5996 1.35263 10.1536 0.928055 9.61059 0.671218C9.06757 0.414382 8.45636 0.338951 7.86721 0.456131C7.32405 0.564163 6.82512 0.83089 6.43352 1.22249C6.04193 1.61409 5.77523 2.11292 5.6672 2.65608ZM10.3382 2.66219C10.4349 3.00449 10.4385 3.36636 10.3487 3.71053C10.2589 4.05469 10.0789 4.36874 9.82738 4.62019C9.57582 4.87165 9.26177 5.05154 8.91756 5.14119C8.57336 5.23084 8.21146 5.227 7.86919 5.1302C7.53821 5.04005 7.23652 4.86496 6.99395 4.62239C6.75138 4.37982 6.57635 4.07813 6.4862 3.74715C6.38954 3.40484 6.38594 3.04297 6.47573 2.69881C6.56552 2.35464 6.74547 2.0406 6.99703 1.78914C7.24859 1.53768 7.56265 1.35804 7.90685 1.26839C8.25106 1.17874 8.61296 1.18234 8.95522 1.27913C9.28611 1.36947 9.58771 1.54465 9.83025 1.78719C10.0728 2.02972 10.2479 2.33129 10.3382 2.66219Z" fill="#2B518E"/>
<path d="M13.2435 9.27621L10.4762 4.79004L9.62512 5.31504L12.3924 9.80121L13.2435 9.27621Z" fill="#2B518E"/>
<path d="M4.43268 9.79871L7.20523 5.31836L6.35523 4.79236L3.58268 9.27271L4.43268 9.79871Z" fill="#2B518E"/>
<path d="M5.27321 12.0088L11.3692 12.0215L11.3713 11.0215L5.27529 11.0088L5.27321 12.0088Z" fill="#2B518E"/>
</svg>
